# xmcd CD database file
#
# Track frame offsets:
#	150
#	16522
#	32981
#	49781
#
# Disc length: 894 seconds
#
# Revision: 1
# Processed by: cddbd v1.5.1PL0 Copyright (c) Steve Scherf et al.
# Submitted via: CDex 1.51
#
DISCID=25037c04
DTITLE=Hue and Cry - Next Move Radio Edits
DYEAR=1900
DGENRE=Jazz
TTITLE0=Next Move
TTITLE1=I Didn't Know
TTITLE2=24/7
TTITLE3=Speed o' Lite
EXTD=
EXTT0=
EXTT1=
EXTT2=
EXTT3=
PLAYORDER=
